<svg width="30" height="27" viewBox="0 0 30 27" fill="none" xmlns="http://www.w3.org/2000/svg">
<rect width="27" height="27" rx="5" fill="#FEE163"/>
<g filter="url(#filter0_d_3189_143)">
<rect x="11" y="8" width="19" height="12" rx="2" fill="#CDAE27"/>
</g>
<path d="M17.432 17.08C17.0427 17.08 16.7013 17.008 16.408 16.864C16.1147 16.7147 15.8853 16.5093 15.72 16.248C15.56 15.9813 15.48 15.672 15.48 15.32V12.84C15.48 12.4827 15.56 12.1733 15.72 11.912C15.8853 11.6507 16.1147 11.448 16.408 11.304C16.7013 11.1547 17.0427 11.08 17.432 11.08C17.8267 11.08 18.168 11.1547 18.456 11.304C18.7493 11.448 18.976 11.6507 19.136 11.912C19.3013 12.1733 19.384 12.4827 19.384 12.84H18.184C18.184 12.6053 18.1173 12.4267 17.984 12.304C17.856 12.1813 17.672 12.12 17.432 12.12C17.192 12.12 17.0053 12.1813 16.872 12.304C16.744 12.4267 16.68 12.6053 16.68 12.84V15.32C16.68 15.5493 16.744 15.728 16.872 15.856C17.0053 15.9787 17.192 16.04 17.432 16.04C17.672 16.04 17.856 15.9787 17.984 15.856C18.1173 15.728 18.184 15.5493 18.184 15.32H19.384C19.384 15.672 19.3013 15.9813 19.136 16.248C18.976 16.5093 18.7493 16.7147 18.456 16.864C18.168 17.008 17.8267 17.08 17.432 17.08ZM20.8369 17L21.0689 15.64H20.4369V14.84H21.2049L21.4689 13.32H20.6769V12.52H21.6049L21.8369 11.16H22.6769L22.4449 12.52H23.4449L23.6769 11.16H24.5169L24.2849 12.52H24.9169V13.32H24.1489L23.8849 14.84H24.6769V15.64H23.7489L23.5169 17H22.6769L22.9089 15.64H21.9089L21.6769 17H20.8369ZM22.0449 14.84H23.0449L23.3089 13.32H22.3089L22.0449 14.84Z" fill="white"/>
<defs>
<filter id="filter0_d_3189_143" x="10" y="8" width="20" height="14" filterUnits="userSpaceOnUse" color-interpolation-filters="sRGB">
<feFlood flood-opacity="0" result="BackgroundImageFix"/>
<feColorMatrix in="SourceAlpha" type="matrix" values="0 0 0 0 0 0 0 0 0 0 0 0 0 0 0 0 0 0 127 0" result="hardAlpha"/>
<feOffset dx="-1" dy="2"/>
<feComposite in2="hardAlpha" operator="out"/>
<feColorMatrix type="matrix" values="0 0 0 0 0 0 0 0 0 0 0 0 0 0 0 0 0 0 0.1 0"/>
<feBlend mode="normal" in2="BackgroundImageFix" result="effect1_dropShadow_3189_143"/>
<feBlend mode="normal" in="SourceGraphic" in2="effect1_dropShadow_3189_143" result="shape"/>
</filter>
</defs>
</svg>
