<svg width="36" height="27" viewBox="0 0 36 27" fill="none" xmlns="http://www.w3.org/2000/svg">
<rect width="27" height="27" rx="5" fill="#1373C0"/>
<g filter="url(#filter0_d_2972_937)">
<rect x="10" y="8" width="26" height="12" rx="2" fill="#0C5692"/>
</g>
<path d="M15.16 17.088C14.5467 17.088 14.0587 16.9227 13.696 16.592C13.3387 16.256 13.16 15.8053 13.16 15.24H14.36C14.36 15.4853 14.432 15.6827 14.576 15.832C14.72 15.976 14.9147 16.048 15.16 16.048C15.4053 16.048 15.6 15.9787 15.744 15.84C15.888 15.696 15.96 15.5013 15.96 15.256V12.28H14.64V11.16H17.16V15.256C17.16 15.8213 16.9813 16.2693 16.624 16.6C16.2667 16.9253 15.7787 17.088 15.16 17.088ZM20.1089 17.08C19.6662 17.08 19.3142 16.96 19.0529 16.72C18.7969 16.48 18.6689 16.1547 18.6689 15.744C18.6689 15.3013 18.8209 14.9627 19.1249 14.728C19.4342 14.488 19.8769 14.368 20.4529 14.368H21.3649V14.04C21.3649 13.8693 21.3035 13.7333 21.1809 13.632C21.0635 13.5307 20.9035 13.48 20.7009 13.48C20.5142 13.48 20.3595 13.5227 20.2369 13.608C20.1142 13.6933 20.0395 13.8107 20.0129 13.96H18.8529C18.9009 13.5173 19.0929 13.168 19.4289 12.912C19.7702 12.6507 20.2075 12.52 20.7409 12.52C21.3009 12.52 21.7435 12.6587 22.0689 12.936C22.3995 13.208 22.5649 13.576 22.5649 14.04V17H21.4049V16.28H21.2129L21.4129 16C21.4129 16.3307 21.2929 16.5947 21.0529 16.792C20.8182 16.984 20.5035 17.08 20.1089 17.08ZM20.5569 16.2C20.7915 16.2 20.9835 16.1387 21.1329 16.016C21.2875 15.888 21.3649 15.7227 21.3649 15.52V15.048H20.4769C20.2955 15.048 20.1489 15.1013 20.0369 15.208C19.9249 15.3093 19.8689 15.4453 19.8689 15.616C19.8689 15.7973 19.9302 15.9413 20.0529 16.048C20.1755 16.1493 20.3435 16.2 20.5569 16.2ZM25.2098 17L23.7698 12.6H25.0098L25.7458 15.072C25.7884 15.2213 25.8311 15.384 25.8738 15.56C25.9164 15.736 25.9484 15.8773 25.9698 15.984C25.9964 15.8773 26.0284 15.736 26.0658 15.56C26.1084 15.384 26.1484 15.224 26.1858 15.08L26.9138 12.6H28.1378L26.7138 17H25.2098ZM30.6626 17.08C30.22 17.08 29.868 16.96 29.6066 16.72C29.3506 16.48 29.2226 16.1547 29.2226 15.744C29.2226 15.3013 29.3746 14.9627 29.6786 14.728C29.988 14.488 30.4306 14.368 31.0066 14.368H31.9186V14.04C31.9186 13.8693 31.8573 13.7333 31.7346 13.632C31.6173 13.5307 31.4573 13.48 31.2546 13.48C31.068 13.48 30.9133 13.5227 30.7906 13.608C30.668 13.6933 30.5933 13.8107 30.5666 13.96H29.4066C29.4546 13.5173 29.6466 13.168 29.9826 12.912C30.324 12.6507 30.7613 12.52 31.2946 12.52C31.8546 12.52 32.2973 12.6587 32.6226 12.936C32.9533 13.208 33.1186 13.576 33.1186 14.04V17H31.9586V16.28H31.7666L31.9666 16C31.9666 16.3307 31.8466 16.5947 31.6066 16.792C31.372 16.984 31.0573 17.08 30.6626 17.08ZM31.1106 16.2C31.3453 16.2 31.5373 16.1387 31.6866 16.016C31.8413 15.888 31.9186 15.7227 31.9186 15.52V15.048H31.0306C30.8493 15.048 30.7026 15.1013 30.5906 15.208C30.4786 15.3093 30.4226 15.4453 30.4226 15.616C30.4226 15.7973 30.484 15.9413 30.6066 16.048C30.7293 16.1493 30.8973 16.2 31.1106 16.2Z" fill="white"/>
<defs>
<filter id="filter0_d_2972_937" x="9" y="8" width="27" height="14" filterUnits="userSpaceOnUse" color-interpolation-filters="sRGB">
<feFlood flood-opacity="0" result="BackgroundImageFix"/>
<feColorMatrix in="SourceAlpha" type="matrix" values="0 0 0 0 0 0 0 0 0 0 0 0 0 0 0 0 0 0 127 0" result="hardAlpha"/>
<feOffset dx="-1" dy="2"/>
<feComposite in2="hardAlpha" operator="out"/>
<feColorMatrix type="matrix" values="0 0 0 0 0 0 0 0 0 0 0 0 0 0 0 0 0 0 0.1 0"/>
<feBlend mode="normal" in2="BackgroundImageFix" result="effect1_dropShadow_2972_937"/>
<feBlend mode="normal" in="SourceGraphic" in2="effect1_dropShadow_2972_937" result="shape"/>
</filter>
</defs>
</svg>
