<svg width="33" height="27" viewBox="0 0 33 27" fill="none" xmlns="http://www.w3.org/2000/svg">
<rect width="27" height="27" rx="5" fill="#519D44"/>
<g filter="url(#filter0_d_3164_128)">
<rect x="12" y="8" width="21" height="12" rx="2" fill="#327925"/>
</g>
<path d="M18.16 17.088C17.5467 17.088 17.0587 16.9227 16.696 16.592C16.3387 16.256 16.16 15.8053 16.16 15.24H17.36C17.36 15.4853 17.432 15.6827 17.576 15.832C17.72 15.976 17.9147 16.048 18.16 16.048C18.4053 16.048 18.6 15.9787 18.744 15.84C18.888 15.696 18.96 15.5013 18.96 15.256V12.28H17.64V11.16H20.16V15.256C20.16 15.8213 19.9813 16.2693 19.624 16.6C19.2667 16.9253 18.7787 17.088 18.16 17.088ZM23.6769 17.08C23.2662 17.08 22.9089 17.0107 22.6049 16.872C22.3009 16.7333 22.0662 16.5387 21.9009 16.288C21.7355 16.0373 21.6529 15.7413 21.6529 15.4H22.8529C22.8529 15.5973 22.9275 15.7547 23.0769 15.872C23.2315 15.984 23.4395 16.04 23.7009 16.04C23.9515 16.04 24.1462 15.984 24.2849 15.872C24.4289 15.76 24.5009 15.6053 24.5009 15.408C24.5009 15.2373 24.4475 15.0907 24.3409 14.968C24.2342 14.8453 24.0849 14.7627 23.8929 14.72L23.3009 14.584C22.8049 14.4667 22.4182 14.2507 22.1409 13.936C21.8689 13.616 21.7329 13.2267 21.7329 12.768C21.7329 12.4267 21.8102 12.1307 21.9649 11.88C22.1249 11.624 22.3489 11.4267 22.6369 11.288C22.9249 11.1493 23.2662 11.08 23.6609 11.08C24.2582 11.08 24.7302 11.2293 25.0769 11.528C25.4289 11.8213 25.6049 12.2187 25.6049 12.72H24.4049C24.4049 12.5333 24.3382 12.3867 24.2049 12.28C24.0769 12.1733 23.8902 12.12 23.6449 12.12C23.4155 12.12 23.2395 12.1733 23.1169 12.28C22.9942 12.3813 22.9329 12.528 22.9329 12.72C22.9329 12.8907 22.9809 13.0373 23.0769 13.16C23.1782 13.2773 23.3195 13.3573 23.5009 13.4L24.1249 13.544C24.6422 13.6613 25.0342 13.8747 25.3009 14.184C25.5675 14.488 25.7009 14.8773 25.7009 15.352C25.7009 15.6933 25.6155 15.9947 25.4449 16.256C25.2795 16.5173 25.0449 16.72 24.7409 16.864C24.4422 17.008 24.0875 17.08 23.6769 17.08Z" fill="white"/>
<defs>
<filter id="filter0_d_3164_128" x="11" y="8" width="22" height="14" filterUnits="userSpaceOnUse" color-interpolation-filters="sRGB">
<feFlood flood-opacity="0" result="BackgroundImageFix"/>
<feColorMatrix in="SourceAlpha" type="matrix" values="0 0 0 0 0 0 0 0 0 0 0 0 0 0 0 0 0 0 127 0" result="hardAlpha"/>
<feOffset dx="-1" dy="2"/>
<feComposite in2="hardAlpha" operator="out"/>
<feColorMatrix type="matrix" values="0 0 0 0 0 0 0 0 0 0 0 0 0 0 0 0 0 0 0.1 0"/>
<feBlend mode="normal" in2="BackgroundImageFix" result="effect1_dropShadow_3164_128"/>
<feBlend mode="normal" in="SourceGraphic" in2="effect1_dropShadow_3164_128" result="shape"/>
</filter>
</defs>
</svg>
