<svg width="4159" height="786" viewBox="0 0 4159 786" fill="none" xmlns="http://www.w3.org/2000/svg">
    <g clip-path="url(#clip0_1295_4238)">
        <rect x="22" y="13" width="759" height="760" rx="150" fill="#775EFF"/>
        <g filter="url(#filter0_d_1295_4238)">
            <path d="M358.841 625.854C292.175 664.182 209 616.059 209 539.16L209 368.555C209 341.459 219.996 315.522 239.472 296.682L335.399 203.885C374.833 165.738 437.639 166.487 476.152 205.565L566.224 296.961C584.663 315.671 595 340.885 595 367.154L595 548.975C595 619.603 517.036 662.414 457.44 624.511V624.511C429.342 606.641 393.648 605.843 364.781 622.439L358.841 625.854Z" fill="white"/>
        </g>
        <g filter="url(#filter1_d_1295_4238)">
            <path d="M352.377 498.504C285.91 531.419 208 483.06 208 408.89L208 284.496C208 254.816 221.184 226.67 243.986 207.67L340.044 127.631C377.811 96.1613 432.851 96.8103 469.866 129.162L559.808 207.771C581.535 226.761 594 254.21 594 283.066V410.339C594 482.209 517.006 527.821 453.974 493.29V493.29C426.879 478.447 394.243 477.772 366.557 491.482L352.377 498.504Z" fill="white"/>
        </g>
        <rect x="267.747" y="544.768" width="68.7297" height="68.7297" rx="34.3649" transform="rotate(-25.3043 267.747 544.768)" fill="#775EFF"/>
        <rect x="445.269" y="545.301" width="68.7297" height="68.7297" rx="34.3649" transform="rotate(-25.3043 445.269 545.301)" fill="#775EFF"/>
        <path d="M1182.8 604V569.2L1390.4 271H1193V217.6H1474.4V257.8L1268.6 553.6H1477.4V604H1182.8ZM1628.72 610C1610.72 610 1593.92 606.8 1578.32 600.4C1563.12 594 1550.92 584.4 1541.72 571.6C1532.52 558.4 1527.92 542.2 1527.92 523C1527.92 495.8 1537.12 474 1555.52 457.6C1574.32 440.8 1603.12 432.4 1641.92 432.4H1733.12V419.8C1733.12 406.2 1730.92 395.4 1726.52 387.4C1722.52 379.4 1714.92 373.6 1703.72 370C1692.92 366.4 1676.92 364.6 1655.72 364.6C1622.12 364.6 1590.72 369.6 1561.52 379.6V331C1574.32 325.8 1589.92 321.6 1608.32 318.4C1626.72 315.2 1646.52 313.6 1667.72 313.6C1709.32 313.6 1740.92 322 1762.52 338.8C1784.52 355.6 1795.52 383 1795.52 421V604H1739.72L1735.52 575.2C1723.92 586.4 1709.52 595 1692.32 601C1675.52 607 1654.32 610 1628.72 610ZM1646.12 563.2C1665.72 563.2 1682.72 560 1697.12 553.6C1711.92 546.8 1723.92 537.8 1733.12 526.6V476.8H1643.12C1623.92 476.8 1609.92 480.6 1601.12 488.2C1592.72 495.4 1588.52 506.6 1588.52 521.8C1588.52 536.6 1593.52 547.2 1603.52 553.6C1613.52 560 1627.72 563.2 1646.12 563.2ZM1868.04 733.6V319.6H1924.44L1928.04 347.8C1940.84 336.2 1954.84 327.6 1970.04 322C1985.24 316.4 2003.24 313.6 2024.04 313.6C2064.84 313.6 2096.64 324.8 2119.44 347.2C2142.24 369.2 2153.64 405.8 2153.64 457C2153.64 508.2 2141.84 546.6 2118.24 572.2C2094.64 597.4 2062.44 610 2021.64 610C1987.24 610 1957.84 602 1933.44 586V733.6H1868.04ZM2004.84 560.8C2060.04 560.8 2087.64 526 2087.64 456.4C2087.64 422.8 2081.44 399 2069.04 385C2056.64 370.6 2035.84 363.4 2006.64 363.4C1977.44 363.4 1953.04 373.4 1933.44 393.4V535.6C1942.64 543.2 1952.84 549.4 1964.04 554.2C1975.64 558.6 1989.24 560.8 2004.84 560.8ZM2217.26 733.6V319.6H2273.66L2277.26 347.8C2290.06 336.2 2304.06 327.6 2319.26 322C2334.46 316.4 2352.46 313.6 2373.26 313.6C2414.06 313.6 2445.86 324.8 2468.66 347.2C2491.46 369.2 2502.86 405.8 2502.86 457C2502.86 508.2 2491.06 546.6 2467.46 572.2C2443.86 597.4 2411.66 610 2370.86 610C2336.46 610 2307.06 602 2282.66 586V733.6H2217.26ZM2354.06 560.8C2409.26 560.8 2436.86 526 2436.86 456.4C2436.86 422.8 2430.66 399 2418.26 385C2405.86 370.6 2385.06 363.4 2355.86 363.4C2326.66 363.4 2302.26 373.4 2282.66 393.4V535.6C2291.86 543.2 2302.06 549.4 2313.26 554.2C2324.86 558.6 2338.46 560.8 2354.06 560.8ZM2637.28 610C2614.08 610 2596.48 604.4 2584.48 593.2C2572.48 581.6 2566.48 562.6 2566.48 536.2V199.6H2631.88V530.2C2631.88 541.4 2633.88 549 2637.88 553C2641.88 557 2647.88 559 2655.88 559C2665.48 559 2674.68 557.8 2683.48 555.4V602.8C2675.88 605.6 2668.48 607.4 2661.28 608.2C2654.48 609.4 2646.48 610 2637.28 610ZM2759.59 709.6C2737.99 709.6 2719.59 706.8 2704.39 701.2V652.6C2711.19 655 2717.39 656.6 2722.99 657.4C2728.99 658.2 2734.99 658.6 2740.99 658.6C2753.39 658.6 2763.39 656.6 2770.99 652.6C2778.59 648.6 2785.19 642.2 2790.79 633.4C2796.79 625 2803.19 614 2809.99 600.4L2683.39 319.6H2751.19L2842.39 530.8L2934.79 319.6H3001.99L2886.19 587.8C2876.19 611.8 2865.39 632.8 2853.79 650.8C2842.59 669.2 2829.39 683.6 2814.19 694C2799.39 704.4 2781.19 709.6 2759.59 709.6ZM2997.46 604L3145.06 217.6H3218.26L3364.66 604H3297.46L3259.06 504.4H3103.66L3065.26 604H2997.46ZM3113.86 454H3248.26L3181.06 277L3113.86 454ZM3428.98 604V217.6H3494.38V604H3428.98ZM3558.19 604V553H3613.39V604H3558.19ZM3701.42 260.2V206.2H3772.82V260.2H3701.42ZM3706.82 604V369.4H3663.62L3669.62 319.6H3772.22V604H3706.82ZM3984.71 610C3933.51 610 3895.91 597.2 3871.91 571.6C3848.31 546 3836.51 509.4 3836.51 461.8C3836.51 414.2 3848.51 377.6 3872.51 352C3896.51 326.4 3933.91 313.6 3984.71 313.6C4035.91 313.6 4073.51 326.4 4097.51 352C4121.51 377.6 4133.51 414.2 4133.51 461.8C4133.51 509.4 4121.51 546 4097.51 571.6C4073.91 597.2 4036.31 610 3984.71 610ZM3984.71 554.8C4014.71 554.8 4035.91 547.6 4048.31 533.2C4061.11 518.4 4067.51 494.6 4067.51 461.8C4067.51 429 4061.11 405.4 4048.31 391C4035.91 376.6 4014.71 369.4 3984.71 369.4C3955.11 369.4 3933.91 376.6 3921.11 391C3908.71 405.4 3902.51 429 3902.51 461.8C3902.51 494.6 3908.71 518.4 3921.11 533.2C3933.91 547.6 3955.11 554.8 3984.71 554.8Z" fill="white"/>
    </g>
    <defs>
        <filter id="filter0_d_1295_4238" x="189" y="155.758" width="426" height="503.551" filterUnits="userSpaceOnUse" color-interpolation-filters="sRGB">
            <feFlood flood-opacity="0" result="BackgroundImageFix"/>
            <feColorMatrix in="SourceAlpha" type="matrix" values="0 0 0 0 0 0 0 0 0 0 0 0 0 0 0 0 0 0 127 0" result="hardAlpha"/>
            <feOffset/>
            <feGaussianBlur stdDeviation="10"/>
            <feComposite in2="hardAlpha" operator="out"/>
            <feColorMatrix type="matrix" values="0 0 0 0 0 0 0 0 0 0 0 0 0 0 0 0 0 0 0.25 0"/>
            <feBlend mode="normal" in2="BackgroundImageFix" result="effect1_dropShadow_1295_4238"/>
            <feBlend mode="normal" in="SourceGraphic" in2="effect1_dropShadow_1295_4238" result="shape"/>
        </filter>
        <filter id="filter1_d_1295_4238" x="185.6" y="82.057" width="430.8" height="449.361" filterUnits="userSpaceOnUse" color-interpolation-filters="sRGB">
            <feFlood flood-opacity="0" result="BackgroundImageFix"/>
            <feColorMatrix in="SourceAlpha" type="matrix" values="0 0 0 0 0 0 0 0 0 0 0 0 0 0 0 0 0 0 127 0" result="hardAlpha"/>
            <feOffset/>
            <feGaussianBlur stdDeviation="11.2"/>
            <feComposite in2="hardAlpha" operator="out"/>
            <feColorMatrix type="matrix" values="0 0 0 0 0 0 0 0 0 0 0 0 0 0 0 0 0 0 0.35 0"/>
            <feBlend mode="normal" in2="BackgroundImageFix" result="effect1_dropShadow_1295_4238"/>
            <feBlend mode="normal" in="SourceGraphic" in2="effect1_dropShadow_1295_4238" result="shape"/>
        </filter>
        <clipPath id="clip0_1295_4238">
            <rect width="4159" height="786" fill="white"/>
        </clipPath>
    </defs>
</svg>
